<?xml version="1.0" encoding="UTF-8" standalone="no"?>
<svg
   width="283.465pt"
   height="141.73199pt"
   viewBox="0 0 283.465 141.732"
   version="1.1"
   id="svg50"
   sodipodi:docname="OSLiB_Logo.svg"
   inkscape:version="1.3.2 (091e20e, 2023-11-25, custom)"
   xmlns:inkscape="http://www.inkscape.org/namespaces/inkscape"
   xmlns:sodipodi="http://sodipodi.sourceforge.net/DTD/sodipodi-0.dtd"
   xmlns="http://www.w3.org/2000/svg"
   xmlns:svg="http://www.w3.org/2000/svg">
  <defs
     id="defs54" />
  <sodipodi:namedview
     id="namedview52"
     pagecolor="#ffffff"
     bordercolor="#000000"
     borderopacity="0.25"
     inkscape:showpageshadow="2"
     inkscape:pageopacity="0.0"
     inkscape:pagecheckerboard="0"
     inkscape:deskcolor="#d1d1d1"
     inkscape:document-units="pt"
     showgrid="false"
     inkscape:zoom="1.5954351"
     inkscape:cx="204.64637"
     inkscape:cy="62.365432"
     inkscape:window-width="1920"
     inkscape:window-height="1017"
     inkscape:window-x="1912"
     inkscape:window-y="-8"
     inkscape:window-maximized="1"
     inkscape:current-layer="svg50" />
  <rect
     style="fill:#ffffff;stroke-width:2.13668"
     id="rect1"
     width="283.465"
     height="141.73199"
     x="-3.5527137e-15"
     y="0" />
  <path
     fill-rule="nonzero"
     fill="#f57a14"
     fill-opacity="1"
     d="m 58.753906,74.070313 h 2.195313 c -0.96875,10.378906 3.003906,21.050781 11.59375,28.261717 9.253906,7.76172 21.527344,9.55078 32.140621,5.78516 l 0.043,0.1289 c -13.13281,5.11329 -28.609372,1.6211 -38.167966,-9.773434 -5.9375,-7.074218 -8.480469,-15.867187 -7.804688,-24.402343"
     id="path2" />
  <path
     fill-rule="nonzero"
     fill="#f57a14"
     fill-opacity="1"
     d="m 70.726563,50.84375 c 14.300781,-12.003906 35.624997,-10.136719 47.628907,4.167969 0.69922,0.835937 1.34766,1.699219 1.95312,2.578125 l -0.17578,0.101562 c -1.51953,-2.0625 -3.30078,-3.980468 -5.35156,-5.699218 -13.89844,-11.664063 -34.625,-9.847657 -46.285156,4.050781 -4.457031,5.308594 -6.945313,11.613281 -7.546875,18.027344 H 58.753906 C 59.445313,65.355469 63.496094,56.910156 70.726563,50.84375"
     id="path4" />
  <path
     fill-rule="nonzero"
     fill="#656263"
     fill-opacity="1"
     d="M 149.40625,69.644531 V 61.933594 H 88.980469 v 1.125 L 142.1875,65.84375 h 3.30859 V 88.175781 L 79.265625,88.179688 78.28125,73.796875 76.125,73.789063 V 92.09375 h 73.28125 v -7.746094 h 4.51953 V 69.644531 Z m 0,0"
     id="path6" />
  <path
     fill-rule="nonzero"
     fill="#656263"
     fill-opacity="1"
     d="m 96.046875,79.699219 c 0,-1.910156 -1.121094,-3.761719 -3.367187,-4.238281 v -0.05469 c 1.796875,-0.703125 3.003906,-2.359375 3.003906,-4.238281 0,-3.03125 -2.273438,-4.6875 -6.371094,-4.6875 -2.332031,0 -4.800781,0.05469 -6.398437,0.140625 v 18.914062 c 2.382812,0 4.375,0.05859 5.527343,0.05859 5.726563,0 7.605469,-3.144531 7.605469,-5.894531 M 91.835938,71.7539 c 0,1.6875 -1.289063,2.695313 -3.789063,2.695313 -0.585937,0 -1.035156,0 -1.484375,-0.02734 v -4.9375 c 0.644531,-0.03125 1.375,-0.05859 2.132813,-0.05859 2.300781,0 3.140625,0.925782 3.140625,2.328125 m 0.308593,8.027344 c 0,1.714844 -1.207031,2.835938 -3.589843,2.835938 -0.84375,0 -1.542969,-0.05469 -1.992188,-0.113282 v -5.304687 c 0.390625,-0.02734 1.316406,-0.02734 1.597656,-0.02734 2.386719,0 3.984375,0.757813 3.984375,2.609375 m 22.484379,5.53125 v -2.246094 c -0.81641,-0.05469 -1.76953,-0.167968 -2.44532,-0.28125 v -6.652343 c 0,-3.058594 -1.26171,-4.855469 -5.7539,-4.855469 -1.79297,0 -3.58985,0.367187 -4.9961,0.871094 l 0.3125,3.003906 c 1.17579,-0.671875 2.85938,-1.09375 4.125,-1.09375 2.01954,0 2.72266,0.757812 2.72266,2.214844 v 0.757812 c -4.74609,0 -8.05469,1.769531 -8.05469,5.109375 0,2.246094 1.45703,3.675781 3.98438,3.675781 2.07812,0 3.78906,-1.09375 4.46094,-2.664062 l 0.0273,0.02734 c -0.10938,0.730468 -0.13672,1.570312 -0.13672,2.386718 1.82422,0.05469 3.98438,-0.03125 5.75391,-0.253906 m -6.03516,-5.613281 c 0,1.683594 -1.20703,3.367187 -2.97656,3.367187 -1.03906,0 -1.65625,-0.589843 -1.65625,-1.488281 0,-1.121094 0.84375,-2.214844 4.63281,-2.214844 z m 18.07031,5.753906 V 82.5625 c -0.50781,0.140625 -1.15234,0.222656 -1.74218,0.222656 -1.23438,0 -1.65625,-0.503906 -1.65625,-2.300781 v -6.117187 h 3.39843 v -2.78125 h -3.39843 v -5.246094 l -3.59375,0.953125 v 4.292969 h -2.38282 v 2.78125 h 2.41407 V 81.4375 c 0,3.257813 0.95312,4.378906 4.03906,4.378906 0.98437,0 2.02344,-0.140625 2.92187,-0.363281 m 12.76953,0 V 82.5625 c -0.50781,0.140625 -1.15234,0.222656 -1.74218,0.222656 -1.23438,0 -1.65625,-0.503906 -1.65625,-2.300781 v -6.117187 h 3.39843 v -2.78125 h -3.39843 v -5.246094 l -3.58985,0.953125 v 4.292969 h -2.38672 v 2.78125 h 2.41407 V 81.4375 c 0,3.257813 0.95312,4.378906 4.03906,4.378906 0.98437,0 2.02344,-0.140625 2.92187,-0.363281"
     id="path8" />
  <path
     fill-rule="nonzero"
     fill="#fab774"
     fill-opacity="1"
     d="m 94.066406,48.070313 c -4.410156,0 -7.984375,-3.574219 -7.984375,-7.980469 0,-4.410156 3.574219,-7.984375 7.984375,-7.984375 4.40625,0 7.980474,3.574219 7.980474,7.984375 0,4.40625 -3.574224,7.980469 -7.980474,7.980469"
     id="path10" />
  <path
     fill-rule="nonzero"
     fill="#ffffff"
     fill-opacity="1"
     d="m 96.199219,43.695313 -0.210938,-7.28125 3.386719,-0.03125 v 0.789062 h 0.84375 l 0.12109,-1 -4.593746,-1.933594 -0.08984,-2.839843 2.144531,0.03125 0.03125,0.816406 0.816407,-0.03125 -0.03125,-0.90625 -2.992188,-1.664063 -1.054687,-1.933593 -1,0.03125 -1.175782,1.902343 -2.992187,1.722657 0.05859,0.785156 0.726562,0.03125 0.179688,-0.753906 2.085937,0.03125 -0.210937,2.808593 -4.472657,2.054688 0.0625,0.816406 0.8125,-0.03125 0.0625,-0.785156 h 3.472657 l -0.242188,7.28125 2.179688,-1.691406 z m 0,0"
     id="path12" />
  <path
     fill="none"
     stroke-width="0.756"
     stroke-linecap="round"
     stroke-linejoin="miter"
     stroke="#4f4c4c"
     stroke-opacity="1"
     stroke-miterlimit="10"
     d="M 96.226562,43.769531 95.574219,29.542969 94.597656,27.660156 h -1.082031 l -0.976563,1.882813 -0.648437,14.226562"
     id="path14" />
  <path
     fill="none"
     stroke-width="0.756"
     stroke-linecap="round"
     stroke-linejoin="round"
     stroke="#4f4c4c"
     stroke-opacity="1"
     stroke-miterlimit="10"
     d="m 95.660156,29.570312 3.125,1.757813 h -9.457031 l 3.125,-1.757813"
     id="path16" />
  <path
     fill="none"
     stroke-width="0.408"
     stroke-linecap="round"
     stroke-linejoin="round"
     stroke="#4f4c4c"
     stroke-opacity="1"
     stroke-miterlimit="10"
     d="m 100.24219,36.28125 v 0.867187 h -0.828128 v -0.863281 z m 0,0"
     id="path18" />
  <path
     fill="none"
     stroke-width="0.756"
     stroke-linecap="round"
     stroke-linejoin="miter"
     stroke="#4f4c4c"
     stroke-opacity="1"
     stroke-miterlimit="10"
     d="M 95.496094,31.363281 92.4375,34.128906 m 0.132812,-2.742187 3.058594,2.742187 m 0.234375,2.480469 -3.523437,3.199219 m -0.03906,-3.152344 3.496094,3.195312 m 0.175781,0.292969 -4.035156,3.578125 m 0.21875,-3.664062 3.925781,3.621093"
     id="path20" />
  <path
     fill="none"
     stroke-width="0.408"
     stroke-linecap="round"
     stroke-linejoin="round"
     stroke="#4f4c4c"
     stroke-opacity="1"
     stroke-miterlimit="10"
     d="m 87.859375,36.28125 v 0.867187 h 0.832031 v -0.863281 z m 0,0"
     id="path22" />
  <path
     fill="none"
     stroke-width="0.756"
     stroke-linecap="round"
     stroke-linejoin="round"
     stroke="#4f4c4c"
     stroke-opacity="1"
     stroke-miterlimit="10"
     d="M 100.53906,36.289062 95.980469,34.269531 H 92.152344 L 87.5625,36.289062 Z m 0,0"
     id="path24" />
  <path
     fill="none"
     stroke-width="0.408"
     stroke-linecap="round"
     stroke-linejoin="round"
     stroke="#4f4c4c"
     stroke-opacity="1"
     stroke-miterlimit="10"
     d="m 89.460937,31.347656 v 0.867188 h 0.828125 v -0.863282 z m 8.367188,0 v 0.867188 h 0.832031 v -0.863282 z m 0,0"
     id="path26" />
  <path
     fill-rule="nonzero"
     fill="#f57a14"
     fill-opacity="1"
     d="M 175.375,86.023438 V 67.425781 h -3.47266 v 5.785157 c 0,2.285156 0.0547,5.59375 0.19532,7.46875 -0.69141,-1.40625 -1.4336,-2.949219 -2.28907,-4.382813 l -5.17968,-8.871094 h -4.65625 v 18.597657 h 3.47265 v -6.640625 c 0,-2.230469 -0.0547,-5.152344 -0.16797,-6.75 0.55078,1.210937 1.21485,2.589843 2.01172,3.992187 l 5.45703,9.398438 z m 19.23437,-0.21875 v -2.207032 c -0.79687,-0.05469 -1.73437,-0.164062 -2.39843,-0.273437 V 72.328125 h -3.5 v 6.613281 c 0,2.398438 -1.40235,4.4375 -3.19532,4.4375 -1.29296,0 -1.67968,-0.855468 -1.67968,-2.289062 v -8.789063 c -1.90235,-0.05469 -4.07813,0.02734 -5.89844,0.25 v 2.203125 c 0.80078,0.05469 1.71094,0.164063 2.37109,0.273438 v 6.917969 c 0,2.398437 0.99219,4.382812 4.10547,4.382812 2.23047,0 3.82813,-1.132812 4.62891,-2.757812 l 0.0547,0.02734 c -0.13672,0.773438 -0.16407,1.820313 -0.16407,2.453125 1.81641,0.05469 3.94141,-0.02734 5.67578,-0.246093 m 9.92188,0.136718 V 83.10156 c -0.49609,0.140625 -1.13281,0.222656 -1.71094,0.222656 -1.21094,0 -1.625,-0.496094 -1.625,-2.261719 v -6.003906 h 3.33594 v -2.730469 h -3.33594 v -5.152344 l -3.52734,0.9375 v 4.214844 h -2.34375 v 2.730469 h 2.37109 V 82 c 0,3.195313 0.9375,4.300781 3.96875,4.300781 0.96485,0 1.98438,-0.140625 2.86719,-0.359375 m 12.34375,0.08203 v -3.222657 h -2.39844 c -1.01953,0 -2.53515,0 -3.11328,0.02734 l 5.40234,-7.992187 v -2.507813 h -9.58984 v 3.140625 h 2.42578 c 1.32031,0 2.39453,-0.02734 2.91797,-0.05469 l -5.50781,8.101562 v 2.507813 z m 18.60156,-0.21875 v -2.207032 c -0.80078,-0.05469 -1.73828,-0.164062 -2.39844,-0.273437 V 72.328125 h -3.5 v 6.613281 c 0,2.398438 -1.40625,4.4375 -3.19531,4.4375 -1.29687,0 -1.68359,-0.855468 -1.68359,-2.289062 v -8.789063 c -1.89844,-0.05469 -4.07813,0.02734 -5.89453,0.25 v 2.203125 c 0.79687,0.05469 1.70703,0.164063 2.36718,0.273438 v 6.917969 c 0,2.398437 0.99219,4.382812 4.10938,4.382812 2.23047,0 3.82812,-1.132812 4.62891,-2.757812 l 0.0547,0.02734 c -0.14062,0.773438 -0.16797,1.820313 -0.16797,2.453125 1.82032,0.05469 3.94141,-0.02734 5.67969,-0.246093 m 6.66797,-13.503907 c -1.84766,-0.05469 -3.96875,0.02734 -5.70312,0.25 v 2.203125 c 0.79687,0.05469 1.73437,0.164063 2.39453,0.273438 v 10.996094 h 3.5 v -6.613282 c 0,-2.398437 1.40625,-4.4375 3.19531,-4.4375 1.29687,0 1.68359,0.855469 1.68359,2.289063 v 8.761719 h 3.5 V 76.40625 c 0,-2.394531 -0.99218,-4.382812 -4.07812,-4.382812 -2.23438,0 -3.83203,1.132812 -4.66016,2.757812 l -0.0273,-0.02734 c 0.14062,-0.71875 0.19531,-1.792968 0.19531,-2.453125 m 24.22266,14.164063 v -13.97266 c -1.48828,-0.246094 -3.08985,-0.410157 -5.01563,-0.410157 -4.82422,0 -7.46875,3.195313 -7.46875,7.824219 0,4.160156 1.78906,6.394531 5.07031,6.394531 1.82032,0 3.33204,-0.964843 4.05079,-2.535156 h 0.0547 c -0.13672,0.714844 -0.13672,1.320313 -0.13672,1.980469 v 0.71875 c 0,2.507812 -1.35156,3.417969 -3.9414,3.417969 -1.29688,0 -2.86719,-0.332032 -4.07813,-0.800782 l -0.27734,3.28125 c 1.1875,0.300782 2.64844,0.523438 4.19141,0.523438 6.0625,0 7.55078,-3.226563 7.55078,-6.421875 m -3.5,-7.605469 c 0,2.398438 -1.10157,4.519531 -2.94922,4.519531 -1.59766,0 -2.34375,-1.296875 -2.34375,-3.859375 0,-3.386718 1.43359,-4.628906 3.44531,-4.628906 0.6875,0 1.26563,0.05469 1.84766,0.191406 z m 0,0"
     id="path28" />
  <path
     fill-rule="nonzero"
     fill="#fab774"
     fill-opacity="1"
     d="m 68.144531,108.875 c -4.410156,0 -7.984375,-3.57031 -7.984375,-7.98047 0,-4.406249 3.574219,-7.980467 7.984375,-7.980467 4.40625,0 7.980469,3.574218 7.980469,7.980467 0,4.41016 -3.574219,7.98047 -7.980469,7.98047"
     id="path30" />
  <path
     fill-rule="nonzero"
     fill="#ffffff"
     fill-opacity="1"
     d="m 62.648438,97.21875 0.222656,-0.546875 c 0,0 0.75,-0.304687 1.894531,-0.476562 1.144531,-0.171875 2.46875,-0.253907 3.023438,-0.136719 0.5625,0.121094 1.554687,0.289062 1.777343,0.511719 0.222657,0.222656 0.511719,0.667968 0.511719,0.667968 l 2.21875,0.05078 v 1.332031 l -0.90625,0.136719 1.097656,2.988279 0.800782,0.0664 -0.01953,1.04297 -0.730468,0.10156 -0.136719,1.28125 -19.113281,0.0352 -1.671875,-2.83594 3.277343,-0.0664 3.246094,-4.152342 z m 0,0"
     id="path32" />
  <path
     fill="none"
     stroke-width="0.693"
     stroke-linecap="butt"
     stroke-linejoin="round"
     stroke="#4f4c4c"
     stroke-opacity="1"
     stroke-miterlimit="10"
     d="m 51.558594,101.36328 1.738281,2.84766 H 72.46875 l 0.0039,-1.34375 0.851563,-0.004 -0.0039,-1.11719 h -3.332032 l -1.023437,0.92188 -10.667969,0.0273 -0.921875,-1.33203 z m 0,0"
     id="path34" />
  <path
     fill="none"
     stroke-width="0.693"
     stroke-linecap="round"
     stroke-linejoin="round"
     stroke="#4f4c4c"
     stroke-opacity="1"
     stroke-miterlimit="10"
     d="m 72.503906,101.58984 -1.1875,-2.988277 h -0.636719 v 3.015627 m -15.644531,-0.44531 3.097656,-3.949224 h 14.175782 v 1.375 H 57.191406 m -1.238281,1.515624 H 70.625"
     id="path36" />
  <path
     fill="none"
     stroke-width="0.693"
     stroke-linecap="butt"
     stroke-linejoin="round"
     stroke="#4f4c4c"
     stroke-opacity="1"
     stroke-miterlimit="10"
     d="m 62.75,97.179687 c -0.03125,-0.05078 -0.04687,-0.101562 -0.04687,-0.156249 0,-0.539063 1.644531,-0.976563 3.671875,-0.976563 2.027344,0 3.671875,0.4375 3.671875,0.976563 0,0.04687 -0.01563,0.09375 -0.03906,0.140624"
     id="path38" />
  <path
     fill-rule="nonzero"
     fill="#fab774"
     fill-opacity="1"
     d="m 60.371094,69.800781 c -4.40625,0 -7.980469,-3.574218 -7.980469,-7.980468 0,-4.410157 3.574219,-7.984375 7.980469,-7.984375 4.410156,0 7.984375,3.574218 7.984375,7.984375 0,4.40625 -3.574219,7.980468 -7.984375,7.980468"
     id="path40" />
  <path
     fill-rule="nonzero"
     fill="#ffffff"
     fill-opacity="1"
     d="m 62.230469,65.699219 c 0,0 0.773437,-0.179688 1.023437,-0.476563 0.25,-0.296875 0.546875,-0.75 0.546875,-0.75 0,0 1.726563,0.04297 2,-0.320312 0.273438,-0.363281 0.886719,-3.933594 0.886719,-3.933594 0,0 -4.070312,-1.867187 -5.777344,-2.09375 -1.707031,-0.226562 -2.136718,-0.363281 -3.523437,-0.386719 -1.390625,-0.02344 -4.324219,0.410157 -5.347656,0.957032 -1.023438,0.542968 -1.523438,1.363281 -2.136719,1.5 -0.617188,0.136718 -3.117188,0.363281 -4.140625,0.636718 -1.023438,0.273438 -1.523438,0.613282 -1.390625,1.023438 0.140625,0.410156 0.480469,0.910156 0.433594,1.160156 -0.04297,0.25 -0.316407,1.363281 -0.06641,1.410156 0.25,0.04687 1.933594,0.04687 1.933594,0.04687 0,0 0.488281,1.058594 1.339844,1.113282 1.070312,0.06641 1.617187,-1.070313 1.617187,-1.070313 l 11.144532,-0.04297 c 0,0 0.867187,1.296875 1.457031,1.226563"
     id="path42" />
  <path
     fill="none"
     stroke-width="0.84"
     stroke-linecap="butt"
     stroke-linejoin="round"
     stroke="#4f4c4c"
     stroke-opacity="1"
     stroke-miterlimit="10"
     d="m 63.679687,64.125 c 0,0.796875 -0.644531,1.445312 -1.441406,1.445312 -0.796875,0 -1.445312,-0.648437 -1.445312,-1.445312 0,-0.796875 0.648437,-1.445313 1.445312,-1.445313 0.796875,0 1.441406,0.648438 1.441406,1.445313 z m -14.175781,0 c 0,0.796875 -0.648437,1.445312 -1.445312,1.445312 -0.796875,0 -1.445313,-0.648437 -1.445313,-1.445312 0,-0.796875 0.648438,-1.445313 1.445313,-1.445313 0.796875,0 1.445312,0.648438 1.445312,1.445313 z m 0.07031,0.324219 h 11.21875 m 3.105469,-0.02344 c 0,0 1.621093,0.09375 2.121093,-0.550781 0.503907,-0.644531 0.71875,-3.652344 0.71875,-3.652344 0,0 -4.777343,-2.671875 -9.957031,-2.507812 -5.175781,0.167968 -5.488281,1.933593 -7.039062,2.4375 -1.550782,0.5 -4.609375,0.523437 -5.179688,1.167968 -0.574219,0.644532 0.238281,1.289063 0.261719,1.695313 0.02344,0.40625 -0.378906,1.398437 0.09375,1.378906 0.503906,-0.01953 0.957031,0.05469 1.769531,0.02344"
     id="path44" />
  <path
     fill="none"
     stroke-width="0.84"
     stroke-linecap="round"
     stroke-linejoin="round"
     stroke="#4f4c4c"
     stroke-opacity="1"
     stroke-miterlimit="10"
     d="m 65.042969,59.578125 c 0,0 -2.039063,0.976562 -3.460938,1.167969 C 59.3125,61.058594 53.25,61.011719 51.101562,60.699219 50.382812,60.597656 48.59375,60.460937 48.59375,60.460937 m 8.808594,-2.554687 -0.382813,2.867187"
     id="path46" />
  <path
     fill-rule="nonzero"
     fill="#4f4c4c"
     fill-opacity="1"
     d="m 124.58984,119.46875 c 3.67188,0 5.44532,-1.89453 5.44532,-6.69531 v -5.6875 c 0,-3.45703 -1.77344,-5.66406 -5.44532,-5.66406 -3.67187,0 -5.44921,2.20703 -5.44921,5.66406 v 5.6875 c 0,4.80078 1.77734,6.69531 5.44921,6.69531 m 0,-1.84766 c -2.08984,0 -3.19531,-0.96093 -3.19531,-4.75 v -5.85546 c 0,-3.625 2.4961,-3.7461 3.19531,-3.7461 0.69532,0 3.19141,0.1211 3.19141,3.7461 v 5.85546 c 0,3.78907 -1.10547,4.75 -3.19141,4.75 m 9.04688,-3.67187 c -0.0469,1.65625 -0.0469,5.57031 5.0625,5.51953 2.85547,0 5.375,-1.17578 5.375,-4.82422 0,-5.49609 -7.77344,-4.9414 -7.77344,-8.75781 0,-1.87109 1.34375,-2.54297 2.66406,-2.54297 2.08594,0 2.6875,1.24609 2.66407,3.14063 h 2.30468 c 0.14063,-3.52735 -1.63281,-5.0625 -4.80078,-5.0625 -2.90625,0 -5.08984,1.63281 -5.08984,4.70312 0,5.21094 7.77734,4.77734 7.77734,8.61719 0,2.0625 -1.34375,2.80859 -3.09765,2.80859 -1.41407,0 -2.90235,-0.74609 -2.90235,-3.09765 v -0.50391 z m 22.63281,5.16016 v -1.91797 h -6.36328 v -15.41016 h -2.20703 v 17.32813 z m 4.03125,-12.1211 h -1.96875 v 12.1211 h 1.96875 z m -2.08984,-3.09375 h 2.20703 v -2.11328 h -2.20703 z m 8.375,7.10547 h 2.35156 c 2.25781,0 3.96094,0.47656 3.96094,3.23828 0,1.27344 -0.83985,2.95313 -3.19141,2.95313 h -3.12109 z m 0,-7.29687 h 3.12109 c 1.84766,0 2.66406,1.17578 2.66406,2.61328 0,1.68359 -0.83984,2.73828 -2.5664,2.76172 h -3.21875 z m 3.35937,15.40625 c 1.96875,0 5.21094,-0.42969 5.21094,-4.8711 0,-2.375 -1.08203,-3.86328 -3.55469,-4.15234 v -0.1211 c 2.23438,-0.5039 2.97656,-1.9414 2.97656,-4.10156 0,-0.33594 -0.0937,-1.37109 -0.69531,-2.30469 -0.64844,-0.96093 -1.46484,-1.77734 -3.86328,-1.77734 h -5.64062 v 17.32813 z m 0,0"
     id="path48" />
</svg>
